<?xml version="1.0" encoding="utf-8"?>
<svg version="1.1" id="Layer_1" xmlns="http://www.w3.org/2000/svg" xmlns:xlink="http://www.w3.org/1999/xlink" x="0px" y="0px"
     viewBox="0 0 193 46" style="enable-background:new 0 0 193 46;" xml:space="preserve">
<style type="text/css">
    .st0{font-family:'Rockwell';}
    .st1{font-size:20.7821px;}
    .st2{fill:#4B0082;} /* Changed fill color to dark purple */
    .st3{fill:url(#SVGID_1_);}
    .st4{fill-rule:evenodd;clip-rule:evenodd;fill:#FFFFFF;}
    .st5{fill:#FFFFFF;}
</style>
<text transform="matrix(1 0 0 1 58.4639 22.5947)" class="st0 st1" style="font-weight: bold;">GenieAI</text>
<path class="st2" d="M57.1,40v-9.7h1.3V40H57.1z M65.2,40v-3.9c0-0.5-0.2-0.9-0.5-1.2c-0.3-0.3-0.7-0.5-1.2-0.5
    c-0.3,0-0.6,0.1-0.9,0.2c-0.3,0.1-0.5,0.4-0.6,0.6c-0.1,0.3-0.2,0.6-0.2,0.9l-0.5-0.3c0-0.5,0.1-1,0.3-1.3c0.2-0.4,0.5-0.7,0.9-0.9
    c0.4-0.2,0.9-0.4,1.4-0.4c0.5,0,0.9,0.1,1.3,0.4c0.4,0.3,0.7,0.6,0.9,1c0.2,0.4,0.3,0.8,0.3,1.3V40H65.2z M60.5,40v-6.7h1.3V40H60.5
    z M69.1,40v-9.4h1.3V40H69.1z M67.5,34.5v-1.1H72v1.1H67.5z M76.2,40.1c-0.7,0-1.3-0.1-1.8-0.4c-0.5-0.3-1-0.7-1.3-1.2
    c-0.3-0.5-0.5-1.1-0.5-1.8c0-0.7,0.1-1.2,0.4-1.8c0.3-0.5,0.7-0.9,1.2-1.2c0.5-0.3,1.1-0.5,1.8-0.5c0.6,0,1.2,0.1,1.6,0.4
    c0.5,0.3,0.8,0.7,1.1,1.2c0.3,0.5,0.4,1.1,0.4,1.7c0,0.1,0,0.2,0,0.3c0,0.1,0,0.2-0.1,0.4h-5.6v-1h4.9L78,36.5
    c0-0.4-0.1-0.8-0.2-1.1c-0.2-0.3-0.4-0.6-0.7-0.7c-0.3-0.2-0.6-0.3-1.1-0.3c-0.4,0-0.8,0.1-1.1,0.3c-0.3,0.2-0.6,0.4-0.8,0.8
    c-0.2,0.3-0.3,0.7-0.3,1.2c0,0.5,0.1,0.9,0.3,1.2c0.2,0.3,0.5,0.6,0.8,0.8c0.3,0.2,0.7,0.3,1.2,0.3c0.4,0,0.7-0.1,1-0.2
    c0.3-0.1,0.6-0.3,0.8-0.6l0.8,0.8c-0.3,0.4-0.7,0.7-1.2,0.9C77.2,40,76.7,40.1,76.2,40.1z M80.6,40V30h1.3v10H80.6z M83.7,40V30h1.3
    v10H83.7z M86.8,40v-6.7h1.3V40H86.8z M87.4,32c-0.2,0-0.4-0.1-0.6-0.2c-0.1-0.2-0.2-0.4-0.2-0.6c0-0.2,0.1-0.4,0.2-0.6
    c0.1-0.2,0.3-0.2,0.6-0.2c0.2,0,0.4,0.1,0.6,0.2c0.1,0.1,0.2,0.3,0.2,0.6c0,0.2-0.1,0.4-0.2,0.6C87.9,31.9,87.7,32,87.4,32z
    M92.7,42.9c-0.7,0-1.3-0.1-1.8-0.4c-0.5-0.3-0.9-0.6-1.3-1.1l0.8-0.8c0.3,0.3,0.6,0.6,1,0.8c0.4,0.2,0.8,0.3,1.3,0.3
    c0.7,0,1.2-0.2,1.6-0.5c0.4-0.4,0.6-0.8,0.6-1.4v-1.7l0.2-1.5l-0.2-1.5v-1.8h1.3v6.4c0,0.6-0.1,1.2-0.4,1.7
    c-0.3,0.5-0.7,0.8-1.2,1.1C94,42.8,93.4,42.9,92.7,42.9z M92.7,39.9c-0.6,0-1.2-0.1-1.6-0.4c-0.5-0.3-0.9-0.7-1.1-1.2
    c-0.3-0.5-0.4-1.1-0.4-1.7s0.1-1.2,0.4-1.7c0.3-0.5,0.7-0.9,1.1-1.2c0.5-0.3,1-0.4,1.6-0.4c0.5,0,1,0.1,1.4,0.3
    c0.4,0.2,0.7,0.5,1,0.9c0.2,0.4,0.4,0.8,0.4,1.3v1.8c0,0.5-0.2,0.9-0.4,1.3c-0.2,0.4-0.6,0.6-1,0.9C93.6,39.8,93.2,39.9,92.7,39.9z
    M92.9,38.7c0.4,0,0.8-0.1,1.1-0.3c0.3-0.2,0.6-0.4,0.7-0.7c0.2-0.3,0.3-0.7,0.3-1.1s-0.1-0.8-0.3-1.1c-0.2-0.3-0.4-0.6-0.7-0.8
    c-0.3-0.2-0.7-0.3-1.1-0.3c-0.4,0-0.8,0.1-1.1,0.3c-0.3,0.2-0.6,0.4-0.8,0.8c-0.2,0.3-0.3,0.7-0.3,1.1c0,0.4,0.1,0.8,0.3,1.1
    c0.2,0.3,0.4,0.6,0.8,0.8C92.1,38.6,92.5,38.7,92.9,38.7z M101.1,40.1c-0.7,0-1.3-0.1-1.8-0.4c-0.5-0.3-1-0.7-1.3-1.2
    c-0.3-0.5-0.5-1.1-0.5-1.8c0-0.7,0.1-1.2,0.4-1.8c0.3-0.5,0.7-0.9,1.2-1.2c0.5-0.3,1.1-0.5,1.8-0.5c0.6,0,1.2,0.1,1.6,0.4
    c0.5,0.3,0.8,0.7,1.1,1.2c0.3,0.5,0.4,1.1,0.4,1.7c0,0.1,0,0.2,0,0.3c0,0.1,0,0.2-0.1,0.4h-5.6v-1h4.9l-0.5,0.4
    c0-0.4-0.1-0.8-0.2-1.1c-0.2-0.3-0.4-0.6-0.7-0.7c-0.3-0.2-0.6-0.3-1.1-0.3c-0.4,0-0.8,0.1-1.1,0.3c-0.3,0.2-0.6,0.4-0.8,0.8
    c-0.2,0.3-0.3,0.7-0.3,1.2c0,0.5,0.1,0.9,0.3,1.2c0.2,0.3,0.5,0.6,0.8,0.8c0.3,0.2,0.7,0.3,1.2,0.3c0.4,0,0.7-0.1,1-0.2
    c0.3-0.1,0.6-0.3,0.8-0.6l0.8,0.8c-0.3,0.4-0.7,0.7-1.2,0.9C102.1,40,101.6,40.1,101.1,40.1z M110.2,40v-3.9c0-0.5-0.2-0.9-0.5-1.2
    c-0.3-0.3-0.7-0.5-1.2-0.5c-0.3,0-0.6,0.1-0.9,0.2c-0.3,0.1-0.5,0.4-0.6,0.6c-0.2,0.3-0.2,0.6-0.2,0.9l-0.5-0.3c0-0.5,0.1-1,0.3-1.3
    c0.2-0.4,0.5-0.7,0.9-0.9c0.4-0.2,0.9-0.4,1.4-0.4s0.9,0.1,1.3,0.4c0.4,0.3,0.7,0.6,0.9,1c0.2,0.4,0.3,0.8,0.3,1.3V40H110.2z
    M105.5,40v-6.7h1.3V40H105.5z M114.1,40v-9.4h1.3V40H114.1z M112.5,34.5v-1.1h4.5v1.1H112.5z M120.3,40l4-9.7h1l4,9.7h-1.4
    l-3.3-8.2h0.5l-3.3,8.2H120.3z M122.2,37.8v-1.1h5.1v1.1H122.2z M130.6,40v-9.7h1.3V40H130.6z M136.1,40l4-9.7h1l4,9.7h-1.4
    l-3.3-8.2h0.5l-3.3,8.2H136.1z M137.9,37.8v-1.1h5.1v1.1H137.9z M148.4,40.1c-0.4,0-0.7,0-1.1-0.1c-0.3-0.1-0.6-0.2-0.9-0.4
    c-0.3-0.2-0.5-0.4-0.7-0.7l0.8-0.8c0.2,0.3,0.5,0.5,0.8,0.7c0.3,0.1,0.7,0.2,1.1,0.2s0.7-0.1,0.9-0.2c0.2-0.1,0.3-0.3,0.3-0.6
    s-0.1-0.4-0.3-0.6c-0.2-0.1-0.4-0.3-0.7-0.3c-0.3-0.1-0.6-0.2-0.9-0.3c-0.3-0.1-0.6-0.2-0.9-0.4s-0.5-0.3-0.7-0.6
    c-0.2-0.2-0.3-0.6-0.3-1c0-0.4,0.1-0.7,0.3-1c0.2-0.3,0.5-0.5,0.8-0.7c0.4-0.2,0.8-0.2,1.3-0.2c0.5,0,1,0.1,1.4,0.3
    c0.4,0.2,0.7,0.4,1,0.8l-0.8,0.8c-0.2-0.2-0.4-0.4-0.7-0.6c-0.3-0.1-0.6-0.2-0.9-0.2c-0.4,0-0.6,0.1-0.8,0.2
    c-0.2,0.1-0.3,0.3-0.3,0.5c0,0.2,0.1,0.4,0.3,0.5s0.4,0.2,0.7,0.3c0.3,0.1,0.6,0.2,0.9,0.3c0.3,0.1,0.6,0.2,0.9,0.3s0.5,0.3,0.7,0.6
    c0.2,0.3,0.3,0.6,0.3,1c0,0.6-0.2,1.1-0.7,1.5C149.8,40,149.2,40.1,148.4,40.1z M154.4,40.1c-0.4,0-0.7,0-1.1-0.1
    c-0.3-0.1-0.6-0.2-0.9-0.4c-0.3-0.2-0.5-0.4-0.7-0.7l0.8-0.8c0.2,0.3,0.5,0.5,0.8,0.7c0.3,0.1,0.7,0.2,1.1,0.2
    c0.4,0,0.7-0.1,0.9-0.2c0.2-0.1,0.3-0.3,0.3-0.6s-0.1-0.4-0.3-0.6c-0.2-0.1-0.4-0.3-0.7-0.3c-0.3-0.1-0.6-0.2-0.9-0.3
    c-0.3-0.1-0.6-0.2-0.9-0.4c-0.3-0.1-0.5-0.3-0.7-0.6c-0.2-0.2-0.3-0.6-0.3-1c0-0.4,0.1-0.7,0.3-1c0.2-0.3,0.5-0.5,0.8-0.7
    c0.4-0.2,0.8-0.2,1.3-0.2c0.5,0,1,0.1,1.4,0.3c0.4,0.2,0.7,0.4,1,0.8l-0.8,0.8c-0.2-0.2-0.4-0.4-0.7-0.6c-0.3-0.1-0.6-0.2-0.9-0.2
    c-0.4,0-0.6,0.1-0.8,0.2c-0.2,0.1-0.3,0.3-0.3,0.5c0,0.2,0.1,0.4,0.3,0.5s0.4,0.2,0.7,0.3c0.3,0.1,0.6,0.2,0.9,0.3
    c0.3,0.1,0.6,0.2,0.9,0.3c0.3,0.1,0.5,0.3,0.7,0.6c0.2,0.3,0.3,0.6,0.3,1c0,0.6-0.2,1.1-0.7,1.5C155.7,40,155.1,40.1,154.4,40.1z
    M158.3,40v-6.7h1.3V40H158.3z M158.9,32c-0.2,0-0.4-0.1-0.6-0.2c-0.1-0.2-0.2-0.4-0.2-0.6c0-0.2,0.1-0.4,0.2-0.6
    c0.2-0.2,0.3-0.2,0.6-0.2c0.2,0,0.4,0.1,0.6,0.2c0.1,0.1,0.2,0.3,0.2,0.6c0,0.2-0.1,0.4-0.2,0.6C159.3,31.9,159.1,32,158.9,32z
    M163.5,40.1c-0.4,0-0.7,0-1.1-0.1c-0.3-0.1-0.6-0.2-0.9-0.4c-0.3-0.2-0.5-0.4-0.7-0.7l0.8-0.8c0.2,0.3,0.5,0.5,0.8,0.7
    c0.3,0.1,0.7,0.2,1.1,0.2s0.7-0.1,0.9-0.2c0.2-0.1,0.3-0.3,0.3-0.6s-0.1-0.4-0.3-0.6c-0.2-0.1-0.4-0.3-0.7-0.3
    c-0.3-0.1-0.6-0.2-0.9-0.3c-0.3-0.1-0.6-0.2-0.9-0.4s-0.5-0.3-0.7-0.6c-0.2-0.2-0.3-0.6-0.3-1c0-0.4,0.1-0.7,0.3-1
    c0.2-0.3,0.5-0.5,0.8-0.7c0.4-0.2,0.8-0.2,1.3-0.2c0.5,0,1,0.1,1.4,0.3c0.4,0.2,0.7,0.4,1,0.8l-0.8,0.8c-0.2-0.2-0.4-0.4-0.7-0.6
    c-0.3-0.1-0.6-0.2-0.9-0.2c-0.4,0-0.6,0.1-0.8,0.2c-0.2,0.1-0.3,0.3-0.3,0.5c0,0.2,0.1,0.4,0.3,0.5s0.4,0.2,0.7,0.3
    c0.3,0.1,0.6,0.2,0.9,0.3c0.3,0.1,0.6,0.2,0.9,0.3s0.5,0.3,0.7,0.6c0.2,0.3,0.3,0.6,0.3,1c0,0.6-0.2,1.1-0.7,1.5
    C164.8,40,164.2,40.1,163.5,40.1z M168.4,40v-9.4h1.3V40H168.4z M166.7,34.5v-1.1h4.5v1.1H166.7z M175.1,40.1
    c-0.6,0-1.2-0.1-1.7-0.4c-0.5-0.3-0.9-0.7-1.2-1.2c-0.3-0.5-0.4-1.1-0.4-1.8c0-0.7,0.1-1.2,0.4-1.8c0.3-0.5,0.7-0.9,1.2-1.2
    c0.5-0.3,1.1-0.5,1.7-0.5c0.5,0,1,0.1,1.3,0.3c0.4,0.2,0.7,0.5,1,0.9c0.2,0.4,0.4,0.8,0.4,1.3v2c0,0.5-0.2,0.9-0.4,1.3
    c-0.2,0.4-0.6,0.7-1,0.9C176.1,40,175.6,40.1,175.1,40.1z M175.3,39c0.6,0,1.1-0.2,1.5-0.6c0.4-0.4,0.6-1,0.6-1.6
    c0-0.5-0.1-0.9-0.3-1.2c-0.2-0.3-0.4-0.6-0.7-0.8c-0.3-0.2-0.7-0.3-1.1-0.3s-0.8,0.1-1.1,0.3c-0.3,0.2-0.6,0.5-0.8,0.8
    c-0.2,0.3-0.3,0.7-0.3,1.2c0,0.4,0.1,0.8,0.3,1.2c0.2,0.3,0.4,0.6,0.8,0.8C174.5,38.9,174.9,39,175.3,39z M177.3,40v-1.8l0.2-1.6
    l-0.2-1.6v-1.6h1.3V40H177.3z M185.2,40v-3.9c0-0.5-0.2-0.9-0.5-1.2c-0.3-0.3-0.7-0.5-1.2-0.5c-0.3,0-0.6,0.1-0.9,0.2
    c-0.3,0.1-0.5,0.4-0.6,0.6c-0.1,0.3-0.2,0.6-0.2,0.9l-0.5-0.3c0-0.5,0.1-1,0.3-1.3c0.2-0.4,0.5-0.7,0.9-0.9c0.4-0.2,0.9-0.4,1.4-0.4
    s0.9,0.1,1.3,0.4c0.4,0.3,0.7,0.6,0.9,1c0.2,0.4,0.3,0.8,0.3,1.3V40H185.2z M180.4,40v-6.7h1.3V40H180.4z M189.1,40v-9.4h1.3V40
    H189.1z M187.4,34.5v-1.1h4.5v1.1H187.4z"/>
<linearGradient id="SVGID_1_" gradientUnits="userSpaceOnUse" x1="51.6927" y1="30.7483" x2="-2.1064" y2="20.2874" gradientTransform="matrix(1 0 0 -1 0 48)">
    <stop offset="0" style="stop-color:#4080F6"/>
    <stop offset="1" style="stop-color:#A356F7"/>
</linearGradient>
<path class="st3" d="M12.8,0.4h20.8c6.6,0,12,5.4,12,12v20.8c0,6.6-5.4,12-12,12H12.8c-6.6,0-12-5.4-12-12V12.4
    C0.8,5.7,6.2,0.4,12.8,0.4z"/>
<path class="st4" d="M17.9,32.2l9-9c1.4-1.4,1.4-3.7,0-5.1c-1.4-1.4-3.7-1.4-5.1,0l-9,9c-1.4,1.4-1.4,3.7,0,5.1
    C14.2,33.6,16.5,33.6,17.9,32.2z M21.8,20.7l2.6,2.6l1.3-1.3c0.7-0.7,0.7-1.9,0-2.6c-0.7-0.7-1.9-0.7-2.6,0L21.8,20.7z"/>
<path class="st5" d="M16.3,12.8c0.1-0.3,0.5-0.3,0.6,0l0.5,1.7c0,0.1,0.1,0.2,0.2,0.2l1.7,0.5c0.3,0.1,0.3,0.5,0,0.6l-1.7,0.5
    c-0.1,0-0.2,0.1-0.2,0.2L17,18.2c-0.1,0.3-0.5,0.3-0.6,0l-0.5-1.7c0-0.1-0.1-0.2-0.2-0.2L14,15.8c-0.3-0.1-0.3-0.5,0-0.6l1.7-0.5
    c0.1,0,0.2-0.1,0.2-0.2L16.3,12.8z"/>
<path class="st5" d="M29.2,11.6c0.1-0.3,0.5-0.3,0.6,0l0.5,1.7c0,0.1,0.1,0.2,0.2,0.2l1.7,0.5c0.3,0.1,0.3,0.5,0,0.6L30.5,15
    c-0.1,0-0.2,0.1-0.2,0.2L29.8,17c-0.1,0.3-0.5,0.3-0.6,0l-0.5-1.7c0-0.1-0.1-0.2-0.2-0.2l-1.7-0.5c-0.3-0.1-0.3-0.5,0-0.6l1.7-0.5
    c0.1,0,0.2-0.1,0.2-0.2L29.2,11.6z"/>
<path class="st5" d="M30.4,23.1c0.1-0.3,0.5-0.3,0.6,0l0.5,1.7c0,0.1,0.1,0.2,0.2,0.2l1.7,0.5c0.3,0.1,0.3,0.5,0,0.6l-1.7,0.5
    c-0.1,0-0.2,0.1-0.2,0.2l-0.5,1.7c-0.1,0.3-0.5,0.3-0.6,0L30,26.8c0-0.1-0.1-0.2-0.2-0.2L28,26.1c-0.3-0.1-0.3-0.5,0-0.6l1.7-0.5
    c0.1,0,0.2-0.1,0.2-0.2L30.4,23.1z"/>
</svg>